<?xml version="1.0" encoding="utf-8"?>
<!-- Generator: Adobe Illustrator 24.2.1, SVG Export Plug-In . SVG Version: 6.00 Build 0)  -->
<svg version="1.1"
	 id="svg3039" inkscape:version="0.48.2 r9819" sodipodi:docname="v-3.svg" xmlns:cc="http://creativecommons.org/ns#" xmlns:dc="http://purl.org/dc/elements/1.1/" xmlns:inkscape="http://www.inkscape.org/namespaces/inkscape" xmlns:rdf="http://www.w3.org/1999/02/22-rdf-syntax-ns#" xmlns:sodipodi="http://sodipodi.sourceforge.net/DTD/sodipodi-0.dtd" xmlns:svg="http://www.w3.org/2000/svg"
	 xmlns="http://www.w3.org/2000/svg" xmlns:xlink="http://www.w3.org/1999/xlink" x="0px" y="0px" viewBox="0 0 107 107"
	 style="enable-background:new 0 0 107 107;" xml:space="preserve">
<style type="text/css">
	.st0{fill:none;}
	.st1{fill:#FFFFFF;}
	.st2{fill:#E2E2E2;}
	.st3{fill:none;stroke:#262626;}
	.st4{fill:#FF0000;stroke:#262626;stroke-width:0.75;stroke-linecap:round;}
	.st5{fill:none;stroke:#262626;stroke-width:0.75;stroke-linecap:round;}
	.st6{fill:none;stroke:#262626;stroke-width:0.75;}
	.st7{fill:#262626;}
</style>
<g>
	<rect class="st0" width="107" height="107"/>
</g>
<rect x="9.5" y="1" class="st1" width="88" height="105"/>
<path class="st2" d="M96.5,2v103h-86V2H96.5 M98.5,0h-90v107h90V0L98.5,0z"/>
<defs>
	<inkscape:path-effect  effect="spiro" id="path-effect3986" is_visible="true"></inkscape:path-effect>
	<inkscape:path-effect  effect="spiro" id="path-effect4144" is_visible="true"></inkscape:path-effect>
	<inkscape:path-effect  effect="spiro" id="path-effect4140" is_visible="true"></inkscape:path-effect>
	<inkscape:path-effect  effect="spiro" id="path-effect3862" is_visible="true"></inkscape:path-effect>
</defs>
<sodipodi:namedview  bordercolor="#666666" borderopacity="1" gridtolerance="10" guidetolerance="10" id="namedview3041" inkscape:current-layer="svg3039" inkscape:cx="48.573568" inkscape:cy="68.111463" inkscape:pageopacity="0" inkscape:pageshadow="2" inkscape:window-height="856" inkscape:window-maximized="0" inkscape:window-width="1134" inkscape:window-x="263" inkscape:window-y="0" inkscape:zoom="9.4428777" objecttolerance="10" pagecolor="#ffffff" showgrid="false">
	</sodipodi:namedview>
<g>
	<g>
		<g>
			<g id="path3827_31_" inkscape:connector-curvature="0" sodipodi:nodetypes="ccccccccccccccccccccccccccccc">
				<path class="st1" d="M53.5,4.8h-17c-0.5,0-1,0.4-1,1v14.5c0,0.5-0.5,1-1,1H29c-0.6,0-1-0.5-1-1V-3.3c0-0.5,0.4-1,1-1h24.5"/>
				<path class="st3" d="M53.5,4.8h-17c-0.5,0-1,0.4-1,1v14.5c0,0.5-0.5,1-1,1H29c-0.6,0-1-0.5-1-1V-3.3c0-0.5,0.4-1,1-1h24.5"/>
			</g>
			<g id="path3827_30_" inkscape:connector-curvature="0" sodipodi:nodetypes="ccccccccccccccccccccccccccccc">
				<path class="st1" d="M35.5,19.8v15.5c0,0.5-0.5,1-1,1h-28c-0.6,0-1,0.5-1,1v28c0,0.6,0.4,1,1,1h13c0.5,0,1-0.4,1-1v-13
					c0-0.5,0-0.5,0,0v41.5c0,0.6-0.5,1-1,1H5c-0.6,0-1,0.4-1,1v14.5c0,0.6,0.4,1,1,1h31c0.5,0,1-0.4,1-1v-13c0-0.6,0.5-1,1-1h15.5"
					/>
				<path class="st3" d="M35.5,19.8v15.5c0,0.5-0.5,1-1,1h-28c-0.6,0-1,0.5-1,1v28c0,0.6,0.4,1,1,1h13c0.5,0,1-0.4,1-1v-13
					c0-0.5,0-0.5,0,0v41.5c0,0.6-0.5,1-1,1H5c-0.6,0-1,0.4-1,1v14.5c0,0.6,0.4,1,1,1h31c0.5,0,1-0.4,1-1v-13c0-0.6,0.5-1,1-1h15.5"
					/>
			</g>
		</g>
		<g>
			<g id="path3827_29_" inkscape:connector-curvature="0" sodipodi:nodetypes="ccccccccccccccccccccccccccccc">
				<path class="st1" d="M53.5-4.3H78c0.6,0,1,0.5,1,1v23.5c0,0.5-0.4,1-1,1h-5.5c-0.6,0-1-0.5-1-1V5.8c0-0.6-0.4-1-1-1h-17"/>
				<path class="st3" d="M53.5-4.3H78c0.6,0,1,0.5,1,1v23.5c0,0.5-0.4,1-1,1h-5.5c-0.6,0-1-0.5-1-1V5.8c0-0.6-0.4-1-1-1h-17"/>
			</g>
			<g id="path3827_28_" inkscape:connector-curvature="0" sodipodi:nodetypes="ccccccccccccccccccccccccccccc">
				<path class="st1" d="M53.5,96.3H69c0.6,0,1,0.4,1,1v13c0,0.6,0.4,1,1,1h31c0.6,0,1-0.4,1-1V95.8c0-0.6-0.4-1-1-1H87.5
					c-0.6,0-1-0.4-1-1V52.3c0-0.5,0-0.5,0,0v13c0,0.6,0.4,1,1,1h13c0.6,0,1-0.4,1-1v-28c0-0.5-0.4-1-1-1h-28c-0.6,0-1-0.5-1-1V19.8"
					/>
				<path class="st3" d="M53.5,96.3H69c0.6,0,1,0.4,1,1v13c0,0.6,0.4,1,1,1h31c0.6,0,1-0.4,1-1V95.8c0-0.6-0.4-1-1-1H87.5
					c-0.6,0-1-0.4-1-1V52.3c0-0.5,0-0.5,0,0v13c0,0.6,0.4,1,1,1h13c0.6,0,1-0.4,1-1v-28c0-0.5-0.4-1-1-1h-28c-0.6,0-1-0.5-1-1V19.8"
					/>
			</g>
		</g>
	</g>
</g>
<g>
	<path id="path3082" inkscape:connector-curvature="0" sodipodi:nodetypes="cc" class="st4" d="M42.4,12.3h6.5"/>
	<path id="path3084" inkscape:connector-curvature="0" sodipodi:nodetypes="cc" class="st5" d="M57.9,12.3h6.6"/>
</g>
<path id="path4082" inkscape:connector-curvature="0" sodipodi:nodetypes="cc" class="st5" d="M57.1,24.6c-2.1,2.8-4.6,3-7.2,0"/>
<path id="path3984" inkscape:connector-curvature="0" inkscape:original-d="m 43.766185,34.85 11.46763,0" inkscape:path-effect="#path-effect3986" class="st6" d="
	M44.9,31.4h17.3"/>
<rect x="43.1" y="15.2" class="st6" width="6.2" height="5.7"/>
<rect x="57.9" y="15.2" class="st6" width="6.2" height="5.7"/>
<circle class="st7" cx="46.2" cy="18.1" r="0.6"/>
<circle class="st7" cx="61" cy="18.1" r="0.6"/>
</svg>
