<?xml version="1.0" encoding="utf-8"?>
<!-- Generator: Adobe Illustrator 24.2.1, SVG Export Plug-In . SVG Version: 6.00 Build 0)  -->
<svg version="1.1"
	 id="svg3039" inkscape:version="0.48.2 r9819" sodipodi:docname="v-3.svg" xmlns:cc="http://creativecommons.org/ns#" xmlns:dc="http://purl.org/dc/elements/1.1/" xmlns:inkscape="http://www.inkscape.org/namespaces/inkscape" xmlns:rdf="http://www.w3.org/1999/02/22-rdf-syntax-ns#" xmlns:sodipodi="http://sodipodi.sourceforge.net/DTD/sodipodi-0.dtd" xmlns:svg="http://www.w3.org/2000/svg"
	 xmlns="http://www.w3.org/2000/svg" xmlns:xlink="http://www.w3.org/1999/xlink" x="0px" y="0px" viewBox="0 0 107 107"
	 style="enable-background:new 0 0 107 107;" xml:space="preserve">
<style type="text/css">
	.st0{fill:#FFFFFF;}
	.st1{fill:#262626;}
	.st2{fill:#FF0000;stroke:#262626;stroke-width:0.5;stroke-linecap:round;}
	.st3{fill:none;stroke:#262626;stroke-width:0.5;stroke-linecap:round;}
	.st4{fill:none;stroke:#262626;stroke-width:0.5;}
	.st5{fill:none;stroke:#262626;}
</style>
<rect x="9.5" y="1" class="st0" width="88" height="105"/>
<path class="st1" d="M96.5,2v103h-86V2H96.5 M98.5,0h-90v107h90V0L98.5,0z"/>
<defs>
	<inkscape:path-effect  effect="spiro" id="path-effect3986" is_visible="true"></inkscape:path-effect>
	<inkscape:path-effect  effect="spiro" id="path-effect4144" is_visible="true"></inkscape:path-effect>
	<inkscape:path-effect  effect="spiro" id="path-effect4140" is_visible="true"></inkscape:path-effect>
	<inkscape:path-effect  effect="spiro" id="path-effect3862" is_visible="true"></inkscape:path-effect>
</defs>
<sodipodi:namedview  bordercolor="#666666" borderopacity="1" gridtolerance="10" guidetolerance="10" id="namedview3041" inkscape:current-layer="svg3039" inkscape:cx="48.573568" inkscape:cy="68.111463" inkscape:pageopacity="0" inkscape:pageshadow="2" inkscape:window-height="856" inkscape:window-maximized="0" inkscape:window-width="1134" inkscape:window-x="263" inkscape:window-y="0" inkscape:zoom="9.4428777" objecttolerance="10" pagecolor="#ffffff" showgrid="false">
	</sodipodi:namedview>
<g>
	<path id="path3082" inkscape:connector-curvature="0" sodipodi:nodetypes="cc" class="st2" d="M50.3,40.1h1.8"/>
	<path id="path3084" inkscape:connector-curvature="0" sodipodi:nodetypes="cc" class="st3" d="M54.8,40.1h1.8"/>
	<path id="path4082" inkscape:connector-curvature="0" sodipodi:nodetypes="cc" class="st3" d="M54.6,43.9c-0.6,0.9-1.4,0.9-2.3,0"
		/>
	
		<path id="path3984" inkscape:connector-curvature="0" inkscape:original-d="m 43.766185,34.85 11.46763,0" inkscape:path-effect="#path-effect3986" class="st4" d="
		M50.8,46.1h5.4"/>
	<rect x="50.2" y="41.1" class="st4" width="1.9" height="1.8"/>
	<rect x="54.8" y="41.1" class="st4" width="1.9" height="1.8"/>
	<circle cx="51.2" cy="41.9" r="0.2"/>
	<circle cx="55.8" cy="41.9" r="0.2"/>
</g>
<g>
	<g>
		<g>
			<g id="path3827_4_" inkscape:connector-curvature="0" sodipodi:nodetypes="ccccccccccccccccccccccccccccc">
				<path class="st5" d="M53.5,37.3H48c-0.3,0-0.5,0.3-0.5,0.5v4.5c0,0.3-0.3,0.5-0.5,0.5h-1.5c-0.3,0-0.5-0.3-0.5-0.5v-7.5
					c0-0.3,0.3-0.5,0.5-0.5h8"/>
			</g>
			<g id="path3827_3_" inkscape:connector-curvature="0" sodipodi:nodetypes="ccccccccccccccccccccccccccccc">
				<path class="st5" d="M47.5,42.3v5c0,0.3-0.3,0.5-0.5,0.5h-9c-0.3,0-0.5,0.3-0.5,0.5v9c0,0.3,0.3,0.5,0.5,0.5h4
					c0.3,0,0.5-0.3,0.5-0.5v-4c0-0.3,0-0.3,0,0v13.5c0,0.3-0.3,0.5-0.5,0.5h-4.5c-0.3,0-0.5,0.2-0.5,0.5v4.5c0,0.3,0.3,0.5,0.5,0.5
					h10c0.3,0,0.5-0.2,0.5-0.5v-4c0-0.3,0.3-0.5,0.5-0.5h5"/>
			</g>
		</g>
		<g>
			<g id="path3827_2_" inkscape:connector-curvature="0" sodipodi:nodetypes="ccccccccccccccccccccccccccccc">
				<path class="st5" d="M53.5,34.3h8c0.3,0,0.5,0.2,0.5,0.5v7.5c0,0.3-0.2,0.5-0.5,0.5H60c-0.3,0-0.5-0.3-0.5-0.5v-4.5
					c0-0.3-0.2-0.5-0.5-0.5h-5.5"/>
			</g>
			<g id="path3827_1_" inkscape:connector-curvature="0" sodipodi:nodetypes="ccccccccccccccccccccccccccccc">
				<path class="st5" d="M53.5,67.8h5c0.3,0,0.5,0.2,0.5,0.5v4c0,0.3,0.2,0.5,0.5,0.5h10c0.3,0,0.5-0.2,0.5-0.5v-4.5
					c0-0.3-0.2-0.5-0.5-0.5H65c-0.3,0-0.5-0.2-0.5-0.5V53.3c0-0.3,0-0.3,0,0v4c0,0.3,0.2,0.5,0.5,0.5h4c0.3,0,0.5-0.3,0.5-0.5v-9
					c0-0.3-0.2-0.5-0.5-0.5h-9c-0.3,0-0.5-0.3-0.5-0.5v-5"/>
			</g>
		</g>
	</g>
</g>
</svg>
