<?xml version="1.0" encoding="utf-8"?>
<!-- Generator: Adobe Illustrator 24.2.1, SVG Export Plug-In . SVG Version: 6.00 Build 0)  -->
<svg version="1.1"
	 id="svg3039" inkscape:version="0.48.2 r9819" sodipodi:docname="v-3.svg" xmlns:cc="http://creativecommons.org/ns#" xmlns:dc="http://purl.org/dc/elements/1.1/" xmlns:inkscape="http://www.inkscape.org/namespaces/inkscape" xmlns:rdf="http://www.w3.org/1999/02/22-rdf-syntax-ns#" xmlns:sodipodi="http://sodipodi.sourceforge.net/DTD/sodipodi-0.dtd" xmlns:svg="http://www.w3.org/2000/svg"
	 xmlns="http://www.w3.org/2000/svg" xmlns:xlink="http://www.w3.org/1999/xlink" x="0px" y="0px" viewBox="0 0 107 107"
	 style="enable-background:new 0 0 107 107;" xml:space="preserve">
<style type="text/css">
	.st0{fill:#FFFFFF;}
	.st1{fill:#E2E2E2;}
	.st2{fill:none;stroke:#262626;}
	.st3{fill:#FF0000;stroke:#262626;stroke-width:0.75;stroke-linecap:round;}
	.st4{fill:none;stroke:#262626;stroke-width:0.75;stroke-linecap:round;}
	.st5{fill:none;stroke:#262626;stroke-width:0.75;}
	.st6{fill:#262626;}
</style>
<rect x="9.5" y="1" class="st0" width="88" height="105"/>
<path class="st1" d="M96.5,2v103h-86V2H96.5 M98.5,0h-90v107h90V0L98.5,0z"/>
<defs>
	<inkscape:path-effect  effect="spiro" id="path-effect3986" is_visible="true"></inkscape:path-effect>
	<inkscape:path-effect  effect="spiro" id="path-effect4144" is_visible="true"></inkscape:path-effect>
	<inkscape:path-effect  effect="spiro" id="path-effect4140" is_visible="true"></inkscape:path-effect>
	<inkscape:path-effect  effect="spiro" id="path-effect3862" is_visible="true"></inkscape:path-effect>
</defs>
<sodipodi:namedview  bordercolor="#666666" borderopacity="1" gridtolerance="10" guidetolerance="10" id="namedview3041" inkscape:current-layer="svg3039" inkscape:cx="48.573568" inkscape:cy="68.111463" inkscape:pageopacity="0" inkscape:pageshadow="2" inkscape:window-height="856" inkscape:window-maximized="0" inkscape:window-width="1134" inkscape:window-x="263" inkscape:window-y="0" inkscape:zoom="9.4428777" objecttolerance="10" pagecolor="#ffffff" showgrid="false">
	</sodipodi:namedview>
<g>
	<g>
		<g>
			<g id="path3827_31_" inkscape:connector-curvature="0" sodipodi:nodetypes="ccccccccccccccccccccccccccccc">
				<path class="st0" d="M53.5,11.9h-14c-0.5,0-1,0.4-1,1v11.8c0,0.5-0.5,1-1,1h-4.3c-0.5,0-1-0.5-1-1V5.4c0-0.6,0.5-1,1-1h20.3"/>
				<path class="st2" d="M53.5,11.9h-14c-0.5,0-1,0.4-1,1v11.8c0,0.5-0.5,1-1,1h-4.3c-0.5,0-1-0.5-1-1V5.4c0-0.6,0.5-1,1-1h20.3"/>
			</g>
			<g id="path3827_30_" inkscape:connector-curvature="0" sodipodi:nodetypes="ccccccccccccccccccccccccccccc">
				<path class="st0" d="M38.5,24.4v12.8c0,0.5-0.5,1-1,1h-23c-0.6,0-1,0.5-1,1v23c0,0.5,0.4,1,1,1H25c0.5,0,1-0.5,1-1V51.6
					c0-0.5,0-0.5,0,0v34.3c0,0.6-0.5,1-1,1H13.3c-0.6,0-1,0.4-1,1v11.8c0,0.6,0.4,1,1,1h25.5c0.5,0,1-0.4,1-1V89.1c0-0.6,0.5-1,1-1
					h12.8"/>
				<path class="st2" d="M38.5,24.4v12.8c0,0.5-0.5,1-1,1h-23c-0.6,0-1,0.5-1,1v23c0,0.5,0.4,1,1,1H25c0.5,0,1-0.5,1-1V51.6
					c0-0.5,0-0.5,0,0v34.3c0,0.6-0.5,1-1,1H13.3c-0.6,0-1,0.4-1,1v11.8c0,0.6,0.4,1,1,1h25.5c0.5,0,1-0.4,1-1V89.1c0-0.6,0.5-1,1-1
					h12.8"/>
			</g>
		</g>
		<g>
			<g id="path3827_29_" inkscape:connector-curvature="0" sodipodi:nodetypes="ccccccccccccccccccccccccccccc">
				<path class="st0" d="M53.5,4.4h20.3c0.6,0,1,0.4,1,1v19.3c0,0.5-0.4,1-1,1h-4.3c-0.6,0-1-0.5-1-1V12.9c0-0.6-0.4-1-1-1h-14"/>
				<path class="st2" d="M53.5,4.4h20.3c0.6,0,1,0.4,1,1v19.3c0,0.5-0.4,1-1,1h-4.3c-0.6,0-1-0.5-1-1V12.9c0-0.6-0.4-1-1-1h-14"/>
			</g>
			<g id="path3827_28_" inkscape:connector-curvature="0" sodipodi:nodetypes="ccccccccccccccccccccccccccccc">
				<path class="st0" d="M53.5,88.1h12.8c0.6,0,1,0.4,1,1v10.5c0,0.6,0.4,1,1,1h25.5c0.6,0,1-0.4,1-1V87.9c0-0.6-0.4-1-1-1H82
					c-0.6,0-1-0.4-1-1V51.6c0-0.5,0-0.5,0,0v10.5c0,0.5,0.4,1,1,1h10.5c0.6,0,1-0.5,1-1v-23c0-0.5-0.4-1-1-1h-23c-0.6,0-1-0.5-1-1
					V24.4"/>
				<path class="st2" d="M53.5,88.1h12.8c0.6,0,1,0.4,1,1v10.5c0,0.6,0.4,1,1,1h25.5c0.6,0,1-0.4,1-1V87.9c0-0.6-0.4-1-1-1H82
					c-0.6,0-1-0.4-1-1V51.6c0-0.5,0-0.5,0,0v10.5c0,0.5,0.4,1,1,1h10.5c0.6,0,1-0.5,1-1v-23c0-0.5-0.4-1-1-1h-23c-0.6,0-1-0.5-1-1
					V24.4"/>
			</g>
		</g>
	</g>
</g>
<path id="path3082" inkscape:connector-curvature="0" sodipodi:nodetypes="cc" class="st3" d="M44.4,18.1h5.3"/>
<path id="path3084" inkscape:connector-curvature="0" sodipodi:nodetypes="cc" class="st4" d="M57.2,18.1h5.4"/>
<path id="path4082" inkscape:connector-curvature="0" sodipodi:nodetypes="cc" class="st4" d="M56.5,28.4c-1.8,2.4-3.9,2.5-6,0"/>
<path id="path3984" inkscape:connector-curvature="0" inkscape:original-d="m 43.766185,34.85 11.46763,0" inkscape:path-effect="#path-effect3986" class="st5" d="
	M46.3,34.1h14.4"/>
<rect x="44.8" y="20.6" class="st5" width="5.2" height="4.8"/>
<rect x="57.1" y="20.6" class="st5" width="5.2" height="4.8"/>
<circle class="st6" cx="47.4" cy="23" r="0.5"/>
<circle class="st6" cx="59.7" cy="23" r="0.5"/>
</svg>
