<?xml version="1.0" encoding="utf-8"?>
<!-- Generator: Adobe Illustrator 24.2.1, SVG Export Plug-In . SVG Version: 6.00 Build 0)  -->
<svg version="1.1"
	 id="svg3039" inkscape:version="0.48.2 r9819" sodipodi:docname="v-3.svg" xmlns:cc="http://creativecommons.org/ns#" xmlns:dc="http://purl.org/dc/elements/1.1/" xmlns:inkscape="http://www.inkscape.org/namespaces/inkscape" xmlns:rdf="http://www.w3.org/1999/02/22-rdf-syntax-ns#" xmlns:sodipodi="http://sodipodi.sourceforge.net/DTD/sodipodi-0.dtd" xmlns:svg="http://www.w3.org/2000/svg"
	 xmlns="http://www.w3.org/2000/svg" xmlns:xlink="http://www.w3.org/1999/xlink" x="0px" y="0px" viewBox="0 0 107 107"
	 style="enable-background:new 0 0 107 107;" xml:space="preserve">
<style type="text/css">
	.st0{fill:#FFFFFF;}
	.st1{fill:#262626;}
	.st2{fill:#FF0000;stroke:#262626;stroke-width:0.75;stroke-linecap:round;}
	.st3{fill:none;stroke:#262626;stroke-width:0.75;stroke-linecap:round;}
	.st4{fill:none;stroke:#262626;stroke-width:0.75;}
	.st5{fill:none;stroke:#262626;}
</style>
<rect x="9.5" y="1" class="st0" width="88" height="105"/>
<path class="st1" d="M96.5,2v103h-86V2H96.5 M98.5,0h-90v107h90V0L98.5,0z"/>
<defs>
	<inkscape:path-effect  effect="spiro" id="path-effect3986" is_visible="true"></inkscape:path-effect>
	<inkscape:path-effect  effect="spiro" id="path-effect4144" is_visible="true"></inkscape:path-effect>
	<inkscape:path-effect  effect="spiro" id="path-effect4140" is_visible="true"></inkscape:path-effect>
	<inkscape:path-effect  effect="spiro" id="path-effect3862" is_visible="true"></inkscape:path-effect>
</defs>
<sodipodi:namedview  bordercolor="#666666" borderopacity="1" gridtolerance="10" guidetolerance="10" id="namedview3041" inkscape:current-layer="svg3039" inkscape:cx="48.573568" inkscape:cy="68.111463" inkscape:pageopacity="0" inkscape:pageshadow="2" inkscape:window-height="856" inkscape:window-maximized="0" inkscape:window-width="1134" inkscape:window-x="263" inkscape:window-y="0" inkscape:zoom="9.4428777" objecttolerance="10" pagecolor="#ffffff" showgrid="false">
	</sodipodi:namedview>
<g>
	<path id="path3082" inkscape:connector-curvature="0" sodipodi:nodetypes="cc" class="st2" d="M47.2,26.7h3.5"/>
	<path id="path3084" inkscape:connector-curvature="0" sodipodi:nodetypes="cc" class="st3" d="M56.2,26.7h3.5"/>
	<path id="path4082" inkscape:connector-curvature="0" sodipodi:nodetypes="cc" class="st3" d="M55.7,34.4c-1.3,1.8-2.9,1.9-4.5,0"
		/>
	
		<path id="path3984" inkscape:connector-curvature="0" inkscape:original-d="m 43.766185,34.85 11.46763,0" inkscape:path-effect="#path-effect3986" class="st4" d="
		M48.1,38.7h10.8"/>
	<rect x="46.9" y="28.6" class="st4" width="3.9" height="3.6"/>
	<rect x="56.2" y="28.6" class="st4" width="3.9" height="3.6"/>
	<circle cx="48.8" cy="30.4" r="0.4"/>
	<circle cx="58.1" cy="30.4" r="0.4"/>
</g>
<g>
	<g>
		<g>
			<g id="path3827_4_" inkscape:connector-curvature="0" sodipodi:nodetypes="ccccccccccccccccccccccccccccc">
				<path class="st5" d="M53.5,21h-11c-0.5,0-1,0.5-1,1v9c0,0.5-0.5,1-1,1h-3c-0.5,0-1-0.5-1-1V16c0-0.6,0.5-1,1-1h16"/>
			</g>
			<g id="path3827_3_" inkscape:connector-curvature="0" sodipodi:nodetypes="ccccccccccccccccccccccccccccc">
				<path class="st5" d="M41.5,31v10c0,0.5-0.5,1-1,1h-18c-0.5,0-1,0.5-1,1v18c0,0.5,0.5,1,1,1h8c0.5,0,1-0.5,1-1v-8
					c0-0.5,0-0.5,0,0v27c0,0.6-0.5,1-1,1h-9c-0.5,0-1,0.4-1,1v9c0,0.6,0.5,1,1,1h20c0.5,0,1-0.4,1-1v-8c0-0.6,0.5-1,1-1h10"/>
			</g>
		</g>
		<g>
			<g id="path3827_2_" inkscape:connector-curvature="0" sodipodi:nodetypes="ccccccccccccccccccccccccccccc">
				<path class="st5" d="M53.5,15h16c0.6,0,1,0.4,1,1v15c0,0.5-0.4,1-1,1h-3c-0.6,0-1-0.5-1-1v-9c0-0.5-0.4-1-1-1h-11"/>
			</g>
			<g id="path3827_1_" inkscape:connector-curvature="0" sodipodi:nodetypes="ccccccccccccccccccccccccccccc">
				<path class="st5" d="M53.5,82h10c0.6,0,1,0.4,1,1v8c0,0.6,0.4,1,1,1h20c0.6,0,1-0.4,1-1v-9c0-0.6-0.4-1-1-1h-9c-0.6,0-1-0.4-1-1
					V53c0-0.5,0-0.5,0,0v8c0,0.5,0.4,1,1,1h8c0.6,0,1-0.5,1-1V43c0-0.5-0.4-1-1-1h-18c-0.6,0-1-0.5-1-1V31"/>
			</g>
		</g>
	</g>
</g>
</svg>
