<?xml version="1.0" encoding="utf-8"?>
<!-- Generator: Adobe Illustrator 24.2.1, SVG Export Plug-In . SVG Version: 6.00 Build 0)  -->
<svg version="1.1"
	 id="svg3039" inkscape:version="0.48.2 r9819" sodipodi:docname="v-3.svg" xmlns:cc="http://creativecommons.org/ns#" xmlns:dc="http://purl.org/dc/elements/1.1/" xmlns:inkscape="http://www.inkscape.org/namespaces/inkscape" xmlns:rdf="http://www.w3.org/1999/02/22-rdf-syntax-ns#" xmlns:sodipodi="http://sodipodi.sourceforge.net/DTD/sodipodi-0.dtd" xmlns:svg="http://www.w3.org/2000/svg"
	 xmlns="http://www.w3.org/2000/svg" xmlns:xlink="http://www.w3.org/1999/xlink" x="0px" y="0px" viewBox="0 0 107 107"
	 style="enable-background:new 0 0 107 107;" xml:space="preserve">
<style type="text/css">
	.st0{fill:#FFFFFF;}
	.st1{fill:#262626;}
	.st2{fill:#FF0000;stroke:#262626;stroke-width:0.75;stroke-linecap:round;}
	.st3{fill:none;stroke:#262626;stroke-width:0.75;stroke-linecap:round;}
	.st4{fill:none;stroke:#262626;stroke-width:0.75;}
	.st5{fill:none;stroke:#262626;}
</style>
<rect x="9.5" y="1" class="st0" width="88" height="105"/>
<path class="st1" d="M96.5,2v103h-86V2H96.5 M98.5,0h-90v107h90V0L98.5,0z"/>
<defs>
	<inkscape:path-effect  effect="spiro" id="path-effect3986" is_visible="true"></inkscape:path-effect>
	<inkscape:path-effect  effect="spiro" id="path-effect4144" is_visible="true"></inkscape:path-effect>
	<inkscape:path-effect  effect="spiro" id="path-effect4140" is_visible="true"></inkscape:path-effect>
	<inkscape:path-effect  effect="spiro" id="path-effect3862" is_visible="true"></inkscape:path-effect>
</defs>
<sodipodi:namedview  bordercolor="#666666" borderopacity="1" gridtolerance="10" guidetolerance="10" id="namedview3041" inkscape:current-layer="svg3039" inkscape:cx="48.573568" inkscape:cy="68.111463" inkscape:pageopacity="0" inkscape:pageshadow="2" inkscape:window-height="856" inkscape:window-maximized="0" inkscape:window-width="1134" inkscape:window-x="263" inkscape:window-y="0" inkscape:zoom="9.4428777" objecttolerance="10" pagecolor="#ffffff" showgrid="false">
	</sodipodi:namedview>
<g>
	<g>
		<path id="path3082" inkscape:connector-curvature="0" sodipodi:nodetypes="cc" class="st2" d="M48.8,33.4h2.6"/>
		<path id="path3084" inkscape:connector-curvature="0" sodipodi:nodetypes="cc" class="st3" d="M55.5,33.4h2.6"/>
		<path id="path4082" inkscape:connector-curvature="0" sodipodi:nodetypes="cc" class="st3" d="M55.1,39.1c-0.9,1.3-2.2,1.4-3.4,0"
			/>
		
			<path id="path3984" inkscape:connector-curvature="0" inkscape:original-d="m 43.766185,34.85 11.46763,0" inkscape:path-effect="#path-effect3986" class="st4" d="
			M49.4,42.4h8.1"/>
		<rect x="48.6" y="34.8" class="st4" width="2.9" height="2.7"/>
		<rect x="55.5" y="34.8" class="st4" width="2.9" height="2.7"/>
		<circle cx="50" cy="36.1" r="0.3"/>
		<circle cx="56.9" cy="36.1" r="0.3"/>
	</g>
	<g>
		<g>
			<g>
				<g id="path3827_4_" inkscape:connector-curvature="0" sodipodi:nodetypes="ccccccccccccccccccccccccccccc">
					<path class="st5" d="M53.5,29.1h-8.3c-0.4,0-0.8,0.4-0.8,0.8v6.8c0,0.4-0.4,0.8-0.8,0.8h-2.3c-0.4,0-0.8-0.4-0.8-0.8V25.4
						c0-0.5,0.4-0.8,0.8-0.8h12"/>
				</g>
				<g id="path3827_3_" inkscape:connector-curvature="0" sodipodi:nodetypes="ccccccccccccccccccccccccccccc">
					<path class="st5" d="M44.5,36.6v7.5c0,0.4-0.4,0.8-0.8,0.8H30.3c-0.4,0-0.8,0.4-0.8,0.8v13.5c0,0.4,0.4,0.8,0.8,0.8h6
						c0.4,0,0.8-0.4,0.8-0.8v-6c0-0.4,0-0.4,0,0v20.3c0,0.4-0.4,0.8-0.8,0.8h-6.8c-0.4,0-0.8,0.3-0.8,0.8v6.8c0,0.4,0.4,0.8,0.8,0.8
						h15c0.4,0,0.8-0.3,0.8-0.8v-6c0-0.4,0.4-0.8,0.8-0.8h7.5"/>
				</g>
			</g>
			<g>
				<g id="path3827_2_" inkscape:connector-curvature="0" sodipodi:nodetypes="ccccccccccccccccccccccccccccc">
					<path class="st5" d="M53.5,24.6h12c0.4,0,0.8,0.3,0.8,0.8v11.3c0,0.4-0.3,0.8-0.8,0.8h-2.3c-0.4,0-0.8-0.4-0.8-0.8v-6.8
						c0-0.4-0.3-0.8-0.8-0.8h-8.3"/>
				</g>
				<g id="path3827_1_" inkscape:connector-curvature="0" sodipodi:nodetypes="ccccccccccccccccccccccccccccc">
					<path class="st5" d="M53.5,74.9H61c0.4,0,0.8,0.3,0.8,0.8v6c0,0.4,0.3,0.8,0.8,0.8h15c0.4,0,0.8-0.3,0.8-0.8v-6.8
						c0-0.4-0.3-0.8-0.8-0.8h-6.8c-0.4,0-0.8-0.3-0.8-0.8V53.1c0-0.4,0-0.4,0,0v6c0,0.4,0.3,0.8,0.8,0.8h6c0.4,0,0.8-0.4,0.8-0.8
						V45.6c0-0.4-0.3-0.8-0.8-0.8H63.3c-0.4,0-0.8-0.4-0.8-0.8v-7.5"/>
				</g>
			</g>
		</g>
	</g>
</g>
</svg>
