<?xml version="1.0" encoding="utf-8"?>
<!-- Generator: Adobe Illustrator 24.2.1, SVG Export Plug-In . SVG Version: 6.00 Build 0)  -->
<svg version="1.1"
	 id="svg3039" inkscape:version="0.48.2 r9819" sodipodi:docname="arousal-1.svg" xmlns:cc="http://creativecommons.org/ns#" xmlns:dc="http://purl.org/dc/elements/1.1/" xmlns:inkscape="http://www.inkscape.org/namespaces/inkscape" xmlns:rdf="http://www.w3.org/1999/02/22-rdf-syntax-ns#" xmlns:sodipodi="http://sodipodi.sourceforge.net/DTD/sodipodi-0.dtd" xmlns:svg="http://www.w3.org/2000/svg"
	 xmlns="http://www.w3.org/2000/svg" xmlns:xlink="http://www.w3.org/1999/xlink" x="0px" y="0px" viewBox="0 0 107 107"
	 style="enable-background:new 0 0 107 107;" xml:space="preserve">
<style type="text/css">
	.st0{fill:#FFFFFF;}
	.st1{fill:#E2E2E2;}
	.st2{fill:none;stroke:#262626;}
	.st3{fill:#FF0000;stroke:#262626;stroke-width:0.75;stroke-linecap:round;}
	.st4{fill:none;stroke:#262626;stroke-width:0.75;stroke-linecap:round;}
	.st5{fill:none;stroke:#262626;stroke-width:0.75;}
</style>
<rect x="9.4" y="1" class="st0" width="88" height="105"/>
<path class="st1" d="M96.4,2v103h-86V2H96.4 M98.4,0h-90v107h90V0L98.4,0z"/>
<g>
	<g>
		<g>
			<g id="path3827_31_" inkscape:connector-curvature="0" sodipodi:nodetypes="ccccccccccccccccccccccccccccc">
				<path class="st2" d="M53.5,20h-11c-0.5,0-1,0.5-1,1v9c0,0.5-0.5,1-1,1h-3c-0.5,0-1-0.5-1-1V15c0-0.6,0.5-1,1-1h16"/>
			</g>
			<g id="path3827_30_" inkscape:connector-curvature="0" sodipodi:nodetypes="ccccccccccccccccccccccccccccc">
				<path class="st2" d="M41.5,30v10c0,0.5-0.5,1-1,1h-18c-0.5,0-1,0.5-1,1v18c0,0.5,0.5,1,1,1h8c0.5,0,1-0.5,1-1v-8
					c0-0.5,0-0.5,0,0v27c0,0.6-0.5,1-1,1h-9c-0.5,0-1,0.4-1,1v9c0,0.6,0.5,1,1,1h20c0.5,0,1-0.4,1-1v-8c0-0.6,0.5-1,1-1h10"/>
			</g>
		</g>
		<g>
			<g id="path3827_29_" inkscape:connector-curvature="0" sodipodi:nodetypes="ccccccccccccccccccccccccccccc">
				<path class="st2" d="M53.5,14h16c0.6,0,1,0.4,1,1v15c0,0.5-0.4,1-1,1h-3c-0.6,0-1-0.5-1-1v-9c0-0.5-0.4-1-1-1h-11"/>
			</g>
			<g id="path3827_28_" inkscape:connector-curvature="0" sodipodi:nodetypes="ccccccccccccccccccccccccccccc">
				<path class="st2" d="M53.5,81h10c0.6,0,1,0.4,1,1v8c0,0.6,0.4,1,1,1h20c0.6,0,1-0.4,1-1v-9c0-0.6-0.4-1-1-1h-9c-0.6,0-1-0.4-1-1
					V52c0-0.5,0-0.5,0,0v8c0,0.5,0.4,1,1,1h8c0.6,0,1-0.5,1-1V42c0-0.5-0.4-1-1-1h-18c-0.6,0-1-0.5-1-1V30"/>
			</g>
		</g>
	</g>
</g>
<g>
	<path id="path3082_1_" inkscape:connector-curvature="0" sodipodi:nodetypes="cc" class="st3" d="M46.5,25h4"/>
	<path id="path3084_1_" inkscape:connector-curvature="0" sodipodi:nodetypes="cc" class="st4" d="M56.5,25h4.1"/>
</g>
<path id="path4082_1_" inkscape:connector-curvature="0" sodipodi:nodetypes="cc" class="st4" d="M55.9,33.2c-1.4,1.9-3.1,2-4.8,0"
	/>
<path id="path3984" inkscape:connector-curvature="0" inkscape:original-d="m 43.766185,34.85 11.46763,0" inkscape:path-effect="#path-effect3986" class="st5" d="
	M47.8,37.8h11.5"/>
<defs>
	<inkscape:path-effect  effect="spiro" id="path-effect3237" is_visible="true"></inkscape:path-effect>
	<inkscape:path-effect  effect="spiro" id="path-effect4144" is_visible="true"></inkscape:path-effect>
	<inkscape:path-effect  effect="spiro" id="path-effect4140" is_visible="true"></inkscape:path-effect>
	<inkscape:path-effect  effect="spiro" id="path-effect3862" is_visible="true"></inkscape:path-effect>
</defs>
<sodipodi:namedview  bordercolor="#666666" borderopacity="1" gridtolerance="10" guidetolerance="10" id="namedview3041" inkscape:current-layer="svg3039" inkscape:cx="23.17049" inkscape:cy="30.071014" inkscape:pageopacity="0" inkscape:pageshadow="2" inkscape:window-height="856" inkscape:window-maximized="0" inkscape:window-width="1134" inkscape:window-x="38" inkscape:window-y="0" inkscape:zoom="10.889444" objecttolerance="10" pagecolor="#ffffff" showgrid="false">
	</sodipodi:namedview>
<path id="path4008" inkscape:connector-curvature="0" sodipodi:nodetypes="cc" class="st4" d="M46.7,27.2c0.1,4.5,4,4.6,3.9,0"/>
<path id="path4010" inkscape:connector-curvature="0" sodipodi:nodetypes="cc" class="st4" d="M56.5,27.2c0.1,4.5,4,4.6,3.9,0"/>
<path id="path4099" inkscape:connector-curvature="0" inkscape:original-d="m 52.489078,57.631462 -0.880152,1.280221 -1.520263,-0.160028 -0.480083,1.360236 -2.000346,0.480083 0.800138,2.560442 2.400415,0.08001 0.480084,1.120194 2.400415,-0.160028 1.200207,-2.960512 -1.520263,-0.64011 0,-1.760305 z" inkscape:path-effect="#path-effect4101" d="
	M54.1,59.3L53.6,60l-0.8-0.1l-0.3,0.7l-1,0.3l0.4,1.3h1.2l0.3,0.5l1.2-0.1l0.6-1.5l-0.8-0.3v-0.9L54.1,59.3"/>
</svg>
