<?xml version="1.0" encoding="utf-8"?>
<!-- Generator: Adobe Illustrator 24.2.1, SVG Export Plug-In . SVG Version: 6.00 Build 0)  -->
<svg version="1.1"
	 id="svg3039" inkscape:version="0.48.2 r9819" sodipodi:docname="arousal-2.svg" xmlns:cc="http://creativecommons.org/ns#" xmlns:dc="http://purl.org/dc/elements/1.1/" xmlns:inkscape="http://www.inkscape.org/namespaces/inkscape" xmlns:rdf="http://www.w3.org/1999/02/22-rdf-syntax-ns#" xmlns:sodipodi="http://sodipodi.sourceforge.net/DTD/sodipodi-0.dtd" xmlns:svg="http://www.w3.org/2000/svg"
	 xmlns="http://www.w3.org/2000/svg" xmlns:xlink="http://www.w3.org/1999/xlink" x="0px" y="0px" viewBox="0 0 107 107"
	 style="enable-background:new 0 0 107 107;" xml:space="preserve">
<style type="text/css">
	.st0{fill:#FFFFFF;}
	.st1{fill:#E2E2E2;}
	.st2{fill:none;stroke:#262626;}
	.st3{fill:#FF0000;stroke:#262626;stroke-width:0.75;stroke-linecap:round;}
	.st4{fill:none;stroke:#262626;stroke-width:0.75;stroke-linecap:round;}
	.st5{fill:none;stroke:#262626;stroke-width:0.75;}
	.st6{fill:#262626;}
</style>
<inkscape:path-effect  effect="spiro" id="path-effect4105" is_visible="true"></inkscape:path-effect>
<inkscape:path-effect  effect="spiro" id="path-effect4101" is_visible="true"></inkscape:path-effect>
<inkscape:path-effect  effect="spiro" id="path-effect3237" is_visible="true"></inkscape:path-effect>
<inkscape:path-effect  effect="spiro" id="path-effect4144" is_visible="true"></inkscape:path-effect>
<inkscape:path-effect  effect="spiro" id="path-effect4140" is_visible="true"></inkscape:path-effect>
<inkscape:path-effect  effect="spiro" id="path-effect3862" is_visible="true"></inkscape:path-effect>
<inkscape:path-effect  effect="spiro" id="path-effect3862-4" is_visible="true"></inkscape:path-effect>
<inkscape:path-effect  effect="spiro" id="path-effect4140-8" is_visible="true"></inkscape:path-effect>
<inkscape:path-effect  effect="spiro" id="path-effect4144-2" is_visible="true"></inkscape:path-effect>
<inkscape:path-effect  effect="spiro" id="path-effect3986" is_visible="true"></inkscape:path-effect>
<rect x="9.5" y="1" class="st0" width="88" height="105"/>
<path class="st1" d="M96.5,2v103h-86V2H96.5 M98.5,0h-90v107h90V0L98.5,0z"/>
<g>
	<g>
		<g>
			<g id="path3827_31_" inkscape:connector-curvature="0" sodipodi:nodetypes="ccccccccccccccccccccccccccccc">
				<path class="st2" d="M53.5,21h-11c-0.5,0-1,0.5-1,1v9c0,0.5-0.5,1-1,1h-3c-0.5,0-1-0.5-1-1V16c0-0.6,0.5-1,1-1h16"/>
			</g>
			<g id="path3827_30_" inkscape:connector-curvature="0" sodipodi:nodetypes="ccccccccccccccccccccccccccccc">
				<path class="st2" d="M41.5,31v10c0,0.5-0.5,1-1,1h-18c-0.5,0-1,0.5-1,1v18c0,0.5,0.5,1,1,1h8c0.5,0,1-0.5,1-1v-8
					c0-0.5,0-0.5,0,0v27c0,0.6-0.5,1-1,1h-9c-0.5,0-1,0.4-1,1v9c0,0.6,0.5,1,1,1h20c0.5,0,1-0.4,1-1v-8c0-0.6,0.5-1,1-1h10"/>
			</g>
		</g>
		<g>
			<g id="path3827_29_" inkscape:connector-curvature="0" sodipodi:nodetypes="ccccccccccccccccccccccccccccc">
				<path class="st2" d="M53.5,15h16c0.6,0,1,0.4,1,1v15c0,0.5-0.4,1-1,1h-3c-0.6,0-1-0.5-1-1v-9c0-0.5-0.4-1-1-1h-11"/>
			</g>
			<g id="path3827_28_" inkscape:connector-curvature="0" sodipodi:nodetypes="ccccccccccccccccccccccccccccc">
				<path class="st2" d="M53.5,82h10c0.6,0,1,0.4,1,1v8c0,0.6,0.4,1,1,1h20c0.6,0,1-0.4,1-1v-9c0-0.6-0.4-1-1-1h-9c-0.6,0-1-0.4-1-1
					V53c0-0.5,0-0.5,0,0v8c0,0.5,0.4,1,1,1h8c0.6,0,1-0.5,1-1V43c0-0.5-0.4-1-1-1h-18c-0.6,0-1-0.5-1-1V31"/>
			</g>
		</g>
	</g>
</g>
<g>
	<path id="path3082_1_" inkscape:connector-curvature="0" sodipodi:nodetypes="cc" class="st3" d="M46.5,26h4"/>
	<path id="path3084_1_" inkscape:connector-curvature="0" sodipodi:nodetypes="cc" class="st4" d="M56.5,26h4.1"/>
</g>
<path id="path4082_1_" inkscape:connector-curvature="0" sodipodi:nodetypes="cc" class="st4" d="M55.9,34.2c-1.4,1.9-3.1,2-4.8,0"
	/>
<path id="path3984" inkscape:connector-curvature="0" inkscape:original-d="m 43.766185,34.85 11.46763,0" inkscape:path-effect="#path-effect3986" class="st5" d="
	M47.8,38.8h11.5"/>
<path id="path4008" inkscape:connector-curvature="0" sodipodi:nodetypes="cc" class="st4" d="M46.7,28.2c0.1,4.5,4,4.6,3.9,0"/>
<path id="path4010" inkscape:connector-curvature="0" sodipodi:nodetypes="cc" class="st4" d="M56.5,28.2c0.1,4.5,4,4.6,3.9,0"/>
<path id="path4844" inkscape:connector-curvature="0" sodipodi:nodetypes="ccc" class="st4" d="M62,56c-2.4-2.2-3.1-0.6-4.8-1.3
	s-0.7-2.3-3.3-2.6"/>
<path id="path4852" inkscape:connector-curvature="0" sodipodi:nodetypes="cc" class="st4" d="M47.6,65.3c1.4,2.2,2.3,2.5,5.1,3.3"
	/>
<g>
	<path class="st5" d="M57.7,61.9c0.6,1.5,0.5,2-0.2,1.3c-0.8-0.7-2.7-0.2-4.4,1.3c-1.6,1.4-2.3,1-1.5-0.9s0.5-3.7-0.6-4
		s-1-0.7,0.3-0.8s2.4-1.3,2.5-2.6s0.5-1.4,1-0.3c0.4,1.1,1.8,1.9,3.1,1.7c1.2-0.2,1.5,0.1,0.5,0.7C57.3,58.8,57,60.4,57.7,61.9z"/>
</g>
<path class="st6" d="M50.4,29.3c0,0.8-0.8,2.4-1.7,2.4S47,30.1,47,29.3s0.2,0.7,1.7,0.7S50.4,28.5,50.4,29.3z"/>
<path class="st6" d="M60.1,29.3c0,0.8-0.8,2.4-1.7,2.4s-1.7-1.6-1.7-2.4s0.2,0.7,1.7,0.7S60.1,28.5,60.1,29.3z"/>
</svg>
