<?xml version="1.0" encoding="utf-8"?>
<!-- Generator: Adobe Illustrator 24.2.1, SVG Export Plug-In . SVG Version: 6.00 Build 0)  -->
<svg version="1.1"
	 id="svg3039" inkscape:version="0.48.2 r9819" sodipodi:docname="arousal-3.svg" xmlns:cc="http://creativecommons.org/ns#" xmlns:dc="http://purl.org/dc/elements/1.1/" xmlns:inkscape="http://www.inkscape.org/namespaces/inkscape" xmlns:rdf="http://www.w3.org/1999/02/22-rdf-syntax-ns#" xmlns:sodipodi="http://sodipodi.sourceforge.net/DTD/sodipodi-0.dtd" xmlns:svg="http://www.w3.org/2000/svg"
	 xmlns="http://www.w3.org/2000/svg" xmlns:xlink="http://www.w3.org/1999/xlink" x="0px" y="0px" viewBox="0 0 107 107"
	 style="enable-background:new 0 0 107 107;" xml:space="preserve">
<style type="text/css">
	.st0{fill:#FFFFFF;}
	.st1{fill:#E2E2E2;}
	.st2{fill:none;stroke:#262626;}
	.st3{fill:#FF0000;stroke:#262626;stroke-width:0.75;stroke-linecap:round;}
	.st4{fill:none;stroke:#262626;stroke-width:0.75;stroke-linecap:round;}
	.st5{fill:none;stroke:#262626;stroke-width:0.75;}
	.st6{fill:#262626;}
</style>
<rect x="9.5" y="1" class="st0" width="88" height="105"/>
<path class="st1" d="M96.5,2v103h-86V2H96.5 M98.5,0h-90v107h90V0L98.5,0z"/>
<defs>
	<inkscape:path-effect  effect="spiro" id="path-effect4875" is_visible="true"></inkscape:path-effect>
	<inkscape:path-effect  effect="spiro" id="path-effect4105" is_visible="true"></inkscape:path-effect>
	<inkscape:path-effect  effect="spiro" id="path-effect4101" is_visible="true"></inkscape:path-effect>
	<inkscape:path-effect  effect="spiro" id="path-effect3237" is_visible="true"></inkscape:path-effect>
	<inkscape:path-effect  effect="spiro" id="path-effect4144" is_visible="true"></inkscape:path-effect>
	<inkscape:path-effect  effect="spiro" id="path-effect4140" is_visible="true"></inkscape:path-effect>
	<inkscape:path-effect  effect="spiro" id="path-effect3862" is_visible="true"></inkscape:path-effect>
	<inkscape:path-effect  effect="spiro" id="path-effect3862-4" is_visible="true"></inkscape:path-effect>
	<inkscape:path-effect  effect="spiro" id="path-effect4140-8" is_visible="true"></inkscape:path-effect>
	<inkscape:path-effect  effect="spiro" id="path-effect4144-2" is_visible="true"></inkscape:path-effect>
	<inkscape:path-effect  effect="spiro" id="path-effect3986" is_visible="true"></inkscape:path-effect>
</defs>
<sodipodi:namedview  bordercolor="#666666" borderopacity="1" gridtolerance="10" guidetolerance="10" id="namedview3041" inkscape:current-layer="svg3039" inkscape:cx="54.440606" inkscape:cy="60.065634" inkscape:pageopacity="0" inkscape:pageshadow="2" inkscape:window-height="852" inkscape:window-maximized="1" inkscape:window-width="1440" inkscape:window-x="0" inkscape:window-y="0" inkscape:zoom="7.71" objecttolerance="10" pagecolor="#ffffff" showgrid="false">
	</sodipodi:namedview>
<g>
	<g>
		<g>
			<g id="path3827_31_" inkscape:connector-curvature="0" sodipodi:nodetypes="ccccccccccccccccccccccccccccc">
				<path class="st2" d="M53.5,20h-11c-0.5,0-1,0.5-1,1v9c0,0.5-0.5,1-1,1h-3c-0.5,0-1-0.5-1-1V15c0-0.6,0.5-1,1-1h16"/>
			</g>
			<g id="path3827_30_" inkscape:connector-curvature="0" sodipodi:nodetypes="ccccccccccccccccccccccccccccc">
				<path class="st2" d="M41.5,30v10c0,0.5-0.5,1-1,1h-18c-0.5,0-1,0.5-1,1v18c0,0.5,0.5,1,1,1h8c0.5,0,1-0.5,1-1v-8
					c0-0.5,0-0.5,0,0v27c0,0.6-0.5,1-1,1h-9c-0.5,0-1,0.4-1,1v9c0,0.6,0.5,1,1,1h20c0.5,0,1-0.4,1-1v-8c0-0.6,0.5-1,1-1h10"/>
			</g>
		</g>
		<g>
			<g id="path3827_29_" inkscape:connector-curvature="0" sodipodi:nodetypes="ccccccccccccccccccccccccccccc">
				<path class="st2" d="M53.5,14h16c0.6,0,1,0.4,1,1v15c0,0.5-0.4,1-1,1h-3c-0.6,0-1-0.5-1-1v-9c0-0.5-0.4-1-1-1h-11"/>
			</g>
			<g id="path3827_28_" inkscape:connector-curvature="0" sodipodi:nodetypes="ccccccccccccccccccccccccccccc">
				<path class="st2" d="M53.5,81h10c0.6,0,1,0.4,1,1v8c0,0.6,0.4,1,1,1h20c0.6,0,1-0.4,1-1v-9c0-0.6-0.4-1-1-1h-9c-0.6,0-1-0.4-1-1
					V52c0-0.5,0-0.5,0,0v8c0,0.5,0.4,1,1,1h8c0.6,0,1-0.5,1-1V42c0-0.5-0.4-1-1-1h-18c-0.6,0-1-0.5-1-1V30"/>
			</g>
		</g>
	</g>
</g>
<g>
	<path id="path3082" inkscape:connector-curvature="0" sodipodi:nodetypes="cc" class="st3" d="M46.5,25h4"/>
	<path id="path3084" inkscape:connector-curvature="0" sodipodi:nodetypes="cc" class="st4" d="M56.5,25h4.1"/>
</g>
<path id="path4082_1_" inkscape:connector-curvature="0" sodipodi:nodetypes="cc" class="st4" d="M55.9,33.2c-1.4,1.9-3.1,2-4.8,0"
	/>
<path id="path3984" inkscape:connector-curvature="0" inkscape:original-d="m 43.766185,34.85 11.46763,0" inkscape:path-effect="#path-effect3986" class="st5" d="
	M47.8,37.8h11.5"/>
<rect x="46.5" y="27" class="st5" width="4.2" height="3.8"/>
<rect x="56.4" y="27" class="st5" width="4.2" height="3.8"/>
<circle class="st6" cx="48.6" cy="28.9" r="0.4"/>
<circle class="st6" cx="58.5" cy="28.9" r="0.4"/>
<g>
	
		<g id="path4099" inkscape:connector-curvature="0" inkscape:original-d="m 49.983116,58.909975 -0.374536,1.201916 -1.789253,0.0579 -1.258023,1.346655 c 0.457744,1.24481 2.547619,1.015649 2.986046,2.625085 L 52.832105,63.92958 52.686592,62.345525 53.200745,60.5988 51.944349,58.903223 c -0.05834,-2.575437 -0.505938,0.188294 -1.961233,0.0068 z" inkscape:path-effect="#path-effect4101" sodipodi:nodetypes="ccccccccccc">
		<path class="st4" d="M54.4,58.6c0,0-0.1,0.2-0.2,0.5s-0.5,0.5-0.9,0.5s-1,0.3-1.2,0.6s0.1,1,0.7,1.6c0.7,0.6,1.9,1,2.6,1
			c0.7,0,1.3-0.4,1.3-0.7c0-0.4,0.1-1,0.2-1.4s0-1-0.3-1.4s-0.9-0.7-1.4-0.7C54.7,58.6,54.4,58.6,54.4,58.6"/>
	</g>
	
		<path id="path4873" inkscape:connector-curvature="0" inkscape:original-d="m 44.382395,51.165785 c -3.008082,-1.688747 3.377495,4.802377 4.696829,4.010776 1.319334,-0.7916 1.477654,-2.322028 3.219175,-2.216481 1.741521,0.105547 2.374801,3.905229 4.432962,4.063549 2.058161,0.15832 0.31664,0.105547 3.535815,1.899841 -2.583076,3.113132 -1.583201,4.749602 -0.738827,5.066242 0.844374,0.316641 1.372108,0.211094 -1.847067,0.15832 -3.219175,-0.05277 0.263866,3.166402 1.213787,3.535815 0.94992,0.369414 1.583201,0.897147 -0.527734,3.483042 -2.110934,2.585895 -6.702216,-13.19334 -9.182564,-3.483042 -1.240174,4.855149 -1.283545,1.959132 -1.266561,2.948712 0.01402,0.81715 -2.024346,-2.842353 -3.917798,-6.089354 -1.893452,-3.247002 -7.441667,-5.553768 -7.270154,-3.192161 0.199438,2.746101 -6.016163,-0.369413 5.119016,-3.060855 11.135179,-2.691441 2.533121,-7.124404 2.533121,-7.124404 z" inkscape:path-effect="#path-effect4875" sodipodi:nodetypes="cssscsssssssssc" class="st4" d="
		M49.8,53.4c0.2,0,0.4,0.1,0.6,0.1s0.4,0.2,0.4,0.4c0.3,0.3,0.4,0.7,0.7,1c0.2,0.4,0.4,0.7,0.7,0.9c0.1,0.1,0.3,0.3,0.5,0.4
		c0.1,0.1,0.4,0.1,0.6,0.1c0.2,0,0.4-0.1,0.7-0.2c0.2-0.1,0.4-0.3,0.5-0.5s0.4-0.4,0.5-0.5s0.4-0.3,0.7-0.4c0.4-0.1,0.8-0.1,1.2,0.1
		s0.7,0.4,0.9,0.8c0.4,0.7,0.7,1.4,1.2,2c0.6,0.8,1.6,1.3,2.5,1.4c0.4,0.1,0.8,0.4,1,0.8c0.2,0.4,0.4,0.9,0.3,1.3
		c-0.1,0.4-0.3,0.9-0.7,1.2s-0.8,0.4-1.2,0.4c-0.2,0-0.4-0.1-0.7-0.1c-0.2,0-0.4,0-0.7,0.1c-0.1,0.1-0.2,0.1-0.2,0.3
		c-0.1,0.1-0.1,0.2-0.1,0.4c0,0.3,0.1,0.5,0.2,0.7c0.3,0.4,0.7,0.7,1,1.2c0.3,0.4,0.4,0.9,0.4,1.4c0,0.2-0.1,0.5-0.2,0.7
		c-0.1,0.1-0.3,0.4-0.5,0.5c-0.3,0.1-0.7,0.2-0.9,0.1c-0.4-0.1-0.7-0.2-0.9-0.4c-0.6-0.4-0.9-0.9-1.4-1.5c-0.4-0.5-0.9-1-1.5-1.3
		c-0.3-0.1-0.7-0.1-1-0.1c-0.4,0.1-0.7,0.2-0.9,0.5c-0.1,0.1-0.2,0.4-0.2,0.5c-0.1,0.2-0.1,0.4-0.1,0.6c-0.1,0.2-0.1,0.4-0.1,0.6
		c-0.1,0.1-0.2,0.4-0.4,0.4c-0.2,0.1-0.5,0.2-0.7,0.2s-0.5-0.1-0.7-0.3c-0.2-0.1-0.4-0.4-0.4-0.7c-0.1-0.2-0.1-0.5-0.2-0.7
		c-0.1-0.5-0.1-1-0.1-1.5c-0.1-0.5-0.2-1-0.6-1.4c-0.4-0.4-0.9-0.6-1.5-0.6c-0.5-0.1-1.1,0-1.6,0s-1.1-0.1-1.5-0.4
		c-0.2-0.1-0.4-0.4-0.6-0.6c-0.1-0.2-0.2-0.5-0.1-0.8c0-0.2,0.1-0.4,0.2-0.5c0.1-0.1,0.2-0.3,0.4-0.4c0.3-0.2,0.7-0.4,1-0.4
		c0.4-0.1,0.7-0.1,1.1-0.3c0.4-0.1,0.7-0.3,0.9-0.6c0.4-0.4,0.4-0.9,0.5-1.4s-0.1-1-0.1-1.5s0-1,0.2-1.5c0.1-0.2,0.3-0.4,0.5-0.6
		C49.3,53.4,49.5,53.4,49.8,53.4"/>
	<path id="path4844_1_" inkscape:connector-curvature="0" sodipodi:nodetypes="ccc" class="st4" d="M60.4,56.5
		c-2.5-2.1-1.3-3.5-3.6-4.3c-2,0-2.1,1.1-3.6,1.1"/>
	<path id="path4852_1_" inkscape:connector-curvature="0" sodipodi:nodetypes="cc" class="st4" d="M48.8,67.2c1,1.4,1.5,2,3.2,2"/>
	<path id="path4852_2_" inkscape:connector-curvature="0" sodipodi:nodetypes="cc" class="st4" d="M47.2,67.9c1,1.4,2.5,3.2,5,2.8"
		/>
</g>
</svg>
