<?xml version="1.0" encoding="utf-8"?>
<!-- Generator: Adobe Illustrator 24.2.1, SVG Export Plug-In . SVG Version: 6.00 Build 0)  -->
<svg version="1.1"
	 id="svg3039" inkscape:version="0.48.2 r9819" sodipodi:docname="arousal-3.svg" xmlns:cc="http://creativecommons.org/ns#" xmlns:dc="http://purl.org/dc/elements/1.1/" xmlns:inkscape="http://www.inkscape.org/namespaces/inkscape" xmlns:rdf="http://www.w3.org/1999/02/22-rdf-syntax-ns#" xmlns:sodipodi="http://sodipodi.sourceforge.net/DTD/sodipodi-0.dtd" xmlns:svg="http://www.w3.org/2000/svg"
	 xmlns="http://www.w3.org/2000/svg" xmlns:xlink="http://www.w3.org/1999/xlink" x="0px" y="0px" viewBox="0 0 107 107"
	 style="enable-background:new 0 0 107 107;" xml:space="preserve">
<style type="text/css">
	.st0{fill:#FFFFFF;}
	.st1{fill:#E2E2E2;}
	.st2{fill:none;stroke:#262626;stroke-width:0.75;stroke-linecap:round;}
	.st3{fill:none;stroke:#262626;stroke-width:0.75;}
	.st4{fill:none;stroke:#262626;}
	.st5{fill:#FF0000;stroke:#262626;stroke-width:0.75;stroke-linecap:round;}
	.st6{fill:#262626;}
</style>
<rect x="9" y="1" class="st0" width="88" height="105"/>
<path class="st1" d="M96,2v103H10V2H96 M98,0H8v107h90V0L98,0z"/>
<defs>
	<inkscape:path-effect  effect="spiro" id="path-effect4875" is_visible="true"></inkscape:path-effect>
	<inkscape:path-effect  effect="spiro" id="path-effect4105" is_visible="true"></inkscape:path-effect>
	<inkscape:path-effect  effect="spiro" id="path-effect4101" is_visible="true"></inkscape:path-effect>
	<inkscape:path-effect  effect="spiro" id="path-effect3237" is_visible="true"></inkscape:path-effect>
	<inkscape:path-effect  effect="spiro" id="path-effect4144" is_visible="true"></inkscape:path-effect>
	<inkscape:path-effect  effect="spiro" id="path-effect4140" is_visible="true"></inkscape:path-effect>
	<inkscape:path-effect  effect="spiro" id="path-effect3862" is_visible="true"></inkscape:path-effect>
	<inkscape:path-effect  effect="spiro" id="path-effect3862-4" is_visible="true"></inkscape:path-effect>
	<inkscape:path-effect  effect="spiro" id="path-effect4140-8" is_visible="true"></inkscape:path-effect>
	<inkscape:path-effect  effect="spiro" id="path-effect4144-2" is_visible="true"></inkscape:path-effect>
	<inkscape:path-effect  effect="spiro" id="path-effect3986" is_visible="true"></inkscape:path-effect>
</defs>
<sodipodi:namedview  bordercolor="#666666" borderopacity="1" gridtolerance="10" guidetolerance="10" id="namedview3041" inkscape:current-layer="svg3039" inkscape:cx="54.440606" inkscape:cy="60.065634" inkscape:pageopacity="0" inkscape:pageshadow="2" inkscape:window-height="852" inkscape:window-maximized="1" inkscape:window-width="1440" inkscape:window-x="0" inkscape:window-y="0" inkscape:zoom="7.71" objecttolerance="10" pagecolor="#ffffff" showgrid="false">
	</sodipodi:namedview>
<path id="path4963" inkscape:connector-curvature="0" sodipodi:nodetypes="ccc" class="st2" d="M16.4,42.7c1.7-0.9,2.8-1.7,3.5-3.4
	c0.9-1.3,1.8,0.4,4.3-1.3"/>
<path id="path4979" inkscape:connector-curvature="0" sodipodi:nodetypes="ccc" class="st2" d="M86.2,97.5c-1.1-2.6,1.9-0.1,2.4-1.9
	C91,90.3,91,96.7,92,91"/>
<g>
	<path id="path4850" inkscape:connector-curvature="0" sodipodi:nodetypes="csc" class="st2" d="M37.2,58.8
		c-1.4-0.8-1.7,3.2,0.2,4.6c1.6,1.1-0.5,1.2,2.1,2"/>
	<path id="path4852" inkscape:connector-curvature="0" sodipodi:nodetypes="cc" class="st2" d="M34.7,63.9c1.7,2.6,2.3,1.2,2.9,3"/>
	<path id="path4992" inkscape:connector-curvature="0" sodipodi:nodetypes="ccc" class="st2" d="M57.4,71.4c0.1,1.1,1.4,1.1,2.3,1
		c0.6,0.1,1.7-0.3,2.7,0.5"/>
	<path id="path4997" inkscape:connector-curvature="0" sodipodi:nodetypes="ccccccccccccccc" class="st3" d="M56.8,54.1
		c1.2,0.3,0.7-0.1,1.8,0.4c0.8,0.4-0.9,1.8-1.1,2.5c-0.2,0.8,0.5,3.9,0,4.4c-2.1-0.5-2.9,0.4-3.7,0.9c-1.6,0.7-1.4,0-3.2,0.1
		c-1.4,0.4-1.3,1.9-2.5,2.4c-0.4-0.1,0.1-3,0.1-3.3c-0.1-1.1,1.4-1,2.4-1.4c0.7,0-0.6-0.5-0.6-1.3c-1.4-0.8-1.7-1.6-2-2
		c0.1-2.2,3,0,3.1-0.8c1-0.8,0.2-2.4,0.7-2.6c0.7,0.1,0.5,0,2.1,0.1C54.9,54.7,55.9,54.2,56.8,54.1z"/>
	<path id="path5004" inkscape:connector-curvature="0" sodipodi:nodetypes="cc" class="st2" d="M64.6,43.6c1.1-0.2,1.6,0.7,1.5,2.1"
		/>
	<path id="path5011" inkscape:connector-curvature="0" sodipodi:nodetypes="cc" class="st2" d="M61.5,44.7c0.9,2.3,1.5-0.3,2.3,2.6"
		/>
	<path id="path5016" inkscape:connector-curvature="0" sodipodi:nodetypes="cc" class="st2" d="M64.1,70c1.1,2,2.4,1.1,2.1,3"/>
	<path id="path5023" inkscape:connector-curvature="0" sodipodi:nodetypes="cc" class="st2" d="M65.5,62.9c-0.6,1.6-0.2,2.7,0,4.5"
		/>
	<path id="path5029" inkscape:connector-curvature="0" sodipodi:nodetypes="cccc" class="st2" d="M64.5,52.4
		c-0.1-0.8,0.5-0.9,0.6-1.4c0.2-0.2,0.3-0.5,0.4-0.7s0.8,0,0.6-0.7"/>
	<path id="path5033" inkscape:connector-curvature="0" sodipodi:nodetypes="cccc" class="st2" d="M44,43c0.7,0.2,1-0.8,1.4-1
		c0.4-0.5,0.5-0.7,1.1-0.9c0.9,0.3,0.6,0.9,1,0.8"/>
	<path id="path5039" inkscape:connector-curvature="0" sodipodi:nodetypes="cccc" class="st2" d="M40.7,50.6
		c1.8-0.3,1.1,0.2,1.7,0.5c0.9,0.2,0.5,0,1.4,0.3c2.2,0.6,0.8,2,2.3,2.1"/>
	<path id="path5045" inkscape:connector-curvature="0" sodipodi:nodetypes="ccccccccccscc" class="st3" d="M45,46.7
		c0.5-5.1,6.1-1.2,6.8,1.8c2,3.2,6.8,3.6,8.6-0.2c5.4-0.6-1.1,6.8,3.1,8.8c2,2.8-3.9,3.6-0.8,6.7c2.9,3.8-2.9,8.9-5.4,4.3
		c-2.3-5.2-3-5.5-4.2,0.8c0.8,3.4-1.8,8.4-5.4,5.2c-3.3-2.8,0.3-7.5-2-10.6c-1.7-2.9-8.6,0.2-6.1-4.9c0.8-1.3,3.9-3.6,6.2-3.9
		c4.4-0.6,3-1,1.6-3C46.3,50.3,44.3,48.8,45,46.7z"/>
</g>
<g>
	<g>
		<g>
			<g id="path3827_31_" inkscape:connector-curvature="0" sodipodi:nodetypes="ccccccccccccccccccccccccccccc">
				<path class="st4" d="M53,20H42c-0.5,0-1,0.5-1,1v9c0,0.5-0.5,1-1,1h-3c-0.5,0-1-0.5-1-1V15c0-0.6,0.5-1,1-1h16"/>
			</g>
			<g id="path3827_30_" inkscape:connector-curvature="0" sodipodi:nodetypes="ccccccccccccccccccccccccccccc">
				<path class="st4" d="M41,30v10c0,0.5-0.5,1-1,1H22c-0.5,0-1,0.5-1,1v18c0,0.5,0.5,1,1,1h8c0.5,0,1-0.5,1-1v-8c0-0.5,0-0.5,0,0
					v27c0,0.6-0.5,1-1,1h-9c-0.5,0-1,0.4-1,1v9c0,0.6,0.5,1,1,1h20c0.5,0,1-0.4,1-1v-8c0-0.6,0.5-1,1-1h10"/>
			</g>
		</g>
		<g>
			<g id="path3827_29_" inkscape:connector-curvature="0" sodipodi:nodetypes="ccccccccccccccccccccccccccccc">
				<path class="st4" d="M53,14h16c0.6,0,1,0.4,1,1v15c0,0.5-0.4,1-1,1h-3c-0.6,0-1-0.5-1-1v-9c0-0.5-0.4-1-1-1H53"/>
			</g>
			<g id="path3827_28_" inkscape:connector-curvature="0" sodipodi:nodetypes="ccccccccccccccccccccccccccccc">
				<path class="st4" d="M53,81h10c0.6,0,1,0.4,1,1v8c0,0.6,0.4,1,1,1h20c0.6,0,1-0.4,1-1v-9c0-0.6-0.4-1-1-1h-9c-0.6,0-1-0.4-1-1
					V52c0-0.5,0-0.5,0,0v8c0,0.5,0.4,1,1,1h8c0.6,0,1-0.5,1-1V42c0-0.5-0.4-1-1-1H66c-0.6,0-1-0.5-1-1V30"/>
			</g>
		</g>
	</g>
</g>
<g>
	<path id="path3082" inkscape:connector-curvature="0" sodipodi:nodetypes="cc" class="st5" d="M46,25h4"/>
	<path id="path3084" inkscape:connector-curvature="0" sodipodi:nodetypes="cc" class="st2" d="M56,25h4.1"/>
</g>
<path id="path4082_1_" inkscape:connector-curvature="0" sodipodi:nodetypes="cc" class="st2" d="M55.4,33.2c-1.4,1.9-3.1,2-4.8,0"
	/>
<path id="path3984" inkscape:connector-curvature="0" inkscape:original-d="m 43.766185,34.85 11.46763,0" inkscape:path-effect="#path-effect3986" class="st3" d="
	M47.3,37.8h11.5"/>
<rect x="46" y="27" class="st3" width="4.2" height="3.8"/>
<rect x="55.9" y="27" class="st3" width="4.2" height="3.8"/>
<circle class="st6" cx="48.1" cy="28.9" r="0.4"/>
<circle class="st6" cx="58" cy="28.9" r="0.4"/>
</svg>
