<?xml version="1.0" encoding="utf-8"?>
<!-- Generator: Adobe Illustrator 24.2.1, SVG Export Plug-In . SVG Version: 6.00 Build 0)  -->
<svg version="1.1"
	 id="svg3039" xmlns:cc="http://creativecommons.org/ns#" xmlns:dc="http://purl.org/dc/elements/1.1/" xmlns:inkscape="http://www.inkscape.org/namespaces/inkscape" xmlns:rdf="http://www.w3.org/1999/02/22-rdf-syntax-ns#" xmlns:svg="http://www.w3.org/2000/svg"
	 xmlns="http://www.w3.org/2000/svg" xmlns:xlink="http://www.w3.org/1999/xlink" x="0px" y="0px" viewBox="0 0 107 107"
	 style="enable-background:new 0 0 107 107;" xml:space="preserve">
<style type="text/css">
	.st0{fill:#FFFFFF;}
	.st1{fill:#E2E2E2;}
	.st2{fill:none;stroke:#262626;stroke-width:0.75;}
	.st3{fill:none;stroke:#262626;stroke-width:0.75;stroke-linecap:round;}
	.st4{fill:none;stroke:#262626;}
	.st5{fill:#FF0000;stroke:#262626;stroke-width:0.75;stroke-linecap:round;}
	.st6{fill:#262626;}
	.st7{fill:#FFFFFF;stroke:#262626;stroke-width:0.75;stroke-linejoin:round;}
	.st8{fill:none;stroke:#262626;stroke-width:0.75;stroke-linecap:round;stroke-linejoin:round;}
</style>
<rect x="9.5" y="1" class="st0" width="88" height="105"/>
<path class="st1" d="M96.5,2v103h-86V2H96.5 M98.5,0h-90v107h90V0L98.5,0z"/>
<defs>
	<inkscape:path-effect  effect="spiro" id="path-effect6073"></inkscape:path-effect>
	<inkscape:path-effect  effect="spiro" id="path-effect5561"></inkscape:path-effect>
	<inkscape:path-effect  effect="spiro" id="path-effect4875"></inkscape:path-effect>
	<inkscape:path-effect  effect="spiro" id="path-effect4105"></inkscape:path-effect>
	<inkscape:path-effect  effect="spiro" id="path-effect4101"></inkscape:path-effect>
	<inkscape:path-effect  effect="spiro" id="path-effect3237"></inkscape:path-effect>
	<inkscape:path-effect  effect="spiro" id="path-effect4144"></inkscape:path-effect>
	<inkscape:path-effect  effect="spiro" id="path-effect4140"></inkscape:path-effect>
	<inkscape:path-effect  effect="spiro" id="path-effect3862"></inkscape:path-effect>
	<inkscape:path-effect  effect="spiro" id="path-effect3862-4"></inkscape:path-effect>
	<inkscape:path-effect  effect="spiro" id="path-effect4140-8"></inkscape:path-effect>
	<inkscape:path-effect  effect="spiro" id="path-effect4144-2"></inkscape:path-effect>
	<inkscape:path-effect  effect="spiro" id="path-effect3986"></inkscape:path-effect>
</defs>
<path id="path5542" class="st2" d="M77.3,48.1c0.1,2.1,1-1.5,1.5,1.5c0.2,0.8,0.8,2.4,0.9,3.1c0.3-3.1,0.8-0.7,1.1-1
	c0.4-0.7-0.1-2.1-0.1-2.8c0-0.4-0.5-1.6-0.9-0.4"/>
<path id="path6075" class="st3" d="M27.6,51.4c2.1-0.9-0.2-3.1,2.7-4.5"/>
<path id="path6082" class="st3" d="M27.8,45.4c0.1,0.9-0.5,1.3-0.7,2.1c-0.3,0.5-0.9,0.7-1.2,1.1"/>
<path id="path6091" class="st3" d="M28.6,78.7c-0.2-0.7-0.6-0.4-0.9-1.1c-0.3-3.3-0.8-5.6,0.8-6"/>
<path id="path6097" class="st3" d="M25.2,73c-0.9,0.3-1,1.7-0.1,2.2"/>
<path id="path6112" class="st3" d="M67.5,46.6c-2.1-2-3.6-2.2-5.7-2.2"/>
<path id="path6112_3_" class="st3" d="M66.9,44c-2.5-1.5-4-1.4-6-1"/>
<path id="path6112_1_" class="st3" d="M50.7,41.8c-2.9-0.2-4.2,0.5-5.8,1.8"/>
<path id="path6112_2_" class="st3" d="M51.9,43.5c-2.9-0.2-4.2,0.5-5.8,1.8"/>
<path id="path6121" class="st3" d="M13.5,90.8c0.2,1.2,0.3,2.2,1,2.7c0.6,0.3-0.9,1.5,1,2.2"/>
<path id="path6137" class="st3" d="M17.1,89c0,0.3-1.2,0.5-1.1,1.5c0,0.5,0.8,1,1,1.7c0.3,0.6-0.1,1.3-0.1,1.5
	c0.3,1.8,1.6-0.8,2,2.3"/>
<path id="path6169" class="st3" d="M88.4,95.9c0.3-1,1.5-1,1.8-1.1c1-1.5,0.2-1.1,0.1-2.6"/>
<path id="path6211" class="st3" d="M89.4,89.2c-1.9,0.4,0,2.5-1.1,2.9s-0.4,1.9-1.5,2.3s-1.1-0.5-2.9,1.4"/>
<path id="path6232" class="st3" d="M71.6,8.5c0.7,0.2,1.3-0.3,1.8-0.6c0.5-0.3,1.2,0,1.5,0.5c0.7,0.7,0.9,1.6,1,2.6
	c0.3,0.6,1.1,0.6,1.5,1.1c0.9,0.9,1.3,2.2,1.2,3.4"/>
<path id="path6253" class="st3" d="M69.6,10.2c1-0.2,2.3,0.1,3,0.9c0.9,1.1,0.9,1.3,1.4,2.6c0.2,0.4,0,2.3,0.4,2.6
	c0.8,0.5,1.1,0.3,0.3,1.5"/>
<path id="path6382" class="st3" d="M26.1,17.6c1.3-5.9,6.1-9.8,11.5-10"/>
<path id="path6384" class="st3" d="M30,17.8c0.8-5.4,10-8.9,11.5-6.8"/>
<path id="path6386" class="st3" d="M65.8,77.2c1.8,0.1,1-0.8,3.3-0.9"/>
<path id="path6397" class="st3" d="M69.9,77.5c0,2-0.9,0.2-2.2,1.3"/>
<path id="path6424" class="st3" d="M48.3,78c-1.9,0.3,0.2-1.5-2.6-1"/>
<path id="path6484" class="st3" d="M44.7,77.8c-0.3,0.7,0.4,1.4,1.1,0.9"/>
<path id="path6486" class="st3" d="M62.1,83.2c-0.5-0.7-0.8,0.6-0.9,0.6c-0.5,0.4-0.7-0.1-1.1,0.3"/>
<path id="path6496" class="st3" d="M60.2,86.3l0.7-0.7"/>
<g>
	<g>
		<g>
			<g id="path3827_31_" inkscape:connector-curvature="0">
				<path class="st4" d="M53.5,20h-11c-0.5,0-1,0.5-1,1v9c0,0.5-0.5,1-1,1h-3c-0.5,0-1-0.5-1-1V15c0-0.6,0.5-1,1-1h16"/>
			</g>
			<g id="path3827_30_" inkscape:connector-curvature="0">
				<path class="st4" d="M41.5,30v10c0,0.5-0.5,1-1,1h-18c-0.5,0-1,0.5-1,1v18c0,0.5,0.5,1,1,1h8c0.5,0,1-0.5,1-1v-8
					c0-0.5,0-0.5,0,0v27c0,0.6-0.5,1-1,1h-9c-0.5,0-1,0.4-1,1v9c0,0.6,0.5,1,1,1h20c0.5,0,1-0.4,1-1v-8c0-0.6,0.5-1,1-1h10"/>
			</g>
		</g>
		<g>
			<g id="path3827_29_" inkscape:connector-curvature="0">
				<path class="st4" d="M53.5,14h16c0.6,0,1,0.4,1,1v15c0,0.5-0.4,1-1,1h-3c-0.6,0-1-0.5-1-1v-9c0-0.5-0.4-1-1-1h-11"/>
			</g>
			<g id="path3827_28_" inkscape:connector-curvature="0">
				<path class="st4" d="M53.5,81h10c0.6,0,1,0.4,1,1v8c0,0.6,0.4,1,1,1h20c0.6,0,1-0.4,1-1v-9c0-0.6-0.4-1-1-1h-9c-0.6,0-1-0.4-1-1
					V52c0-0.5,0-0.5,0,0v8c0,0.5,0.4,1,1,1h8c0.6,0,1-0.5,1-1V42c0-0.5-0.4-1-1-1h-18c-0.6,0-1-0.5-1-1V30"/>
			</g>
		</g>
	</g>
</g>
<g>
	<path id="path3082" inkscape:connector-curvature="0" class="st5" d="M46.5,25h4"/>
	<path id="path3084" inkscape:connector-curvature="0" class="st3" d="M56.5,25h4.1"/>
</g>
<path id="path4082_1_" inkscape:connector-curvature="0" class="st3" d="M55.9,33.2c-1.4,1.9-3.1,2-4.8,0"/>
<path id="path3984" inkscape:connector-curvature="0" inkscape:original-d="m 43.766185,34.85 11.46763,0" inkscape:path-effect="#path-effect3986" class="st2" d="
	M47.8,37.8h11.5"/>
<rect x="46.5" y="27" class="st2" width="4.2" height="3.8"/>
<rect x="56.4" y="27" class="st2" width="4.2" height="3.8"/>
<circle class="st6" cx="48.6" cy="28.9" r="0.4"/>
<circle class="st6" cx="58.5" cy="28.9" r="0.4"/>
<path id="path6071" class="st7" d="M58.4,56.1L26,32.3l12.9,25.9L24.2,65l19.6-2.6l3.4,1L29.8,74.9l19.3-3l7.3,20.6l1.5-20l5.9,6.5
	l-2.9-8.3l18.5,7.5l-4.4-6l-8.8-8.1l5.1-1.5l-6.1-2.9l18.3-26.1L62.8,55.2l-7.5-8.1L58.4,56.1"/>
<path id="path5559" class="st8" d="M50.9,58.1l4.4,5.6L51.9,69l4.3-3.8L57,67l3.2,0.6l-1.5-2l-0.3-1.5L61,60l-4.2,2.7L50.9,58.1"/>
</svg>
