<?xml version="1.0" encoding="utf-8"?>
<!-- Generator: Adobe Illustrator 24.2.1, SVG Export Plug-In . SVG Version: 6.00 Build 0)  -->
<svg version="1.1"
	 id="svg3039" inkscape:version="0.48.2 r9819" sodipodi:docname="v-4.svg" xmlns:cc="http://creativecommons.org/ns#" xmlns:dc="http://purl.org/dc/elements/1.1/" xmlns:inkscape="http://www.inkscape.org/namespaces/inkscape" xmlns:rdf="http://www.w3.org/1999/02/22-rdf-syntax-ns#" xmlns:sodipodi="http://sodipodi.sourceforge.net/DTD/sodipodi-0.dtd" xmlns:svg="http://www.w3.org/2000/svg"
	 xmlns="http://www.w3.org/2000/svg" xmlns:xlink="http://www.w3.org/1999/xlink" x="0px" y="0px" viewBox="0 0 107 107"
	 style="enable-background:new 0 0 107 107;" xml:space="preserve">
<style type="text/css">
	.st0{fill:#FFFFFF;}
	.st1{fill:#E2E2E2;}
	.st2{fill:none;stroke:#262626;}
	.st3{fill:#FF0000;stroke:#262626;stroke-width:0.75;stroke-linecap:round;}
	.st4{fill:none;stroke:#262626;stroke-width:0.75;stroke-linecap:round;}
	.st5{fill:none;stroke:#262626;stroke-width:0.75;}
	.st6{fill:#262626;}
</style>
<defs>
	<inkscape:path-effect  effect="spiro" id="path-effect3986" is_visible="true"></inkscape:path-effect>
	<inkscape:path-effect  effect="spiro" id="path-effect4144" is_visible="true"></inkscape:path-effect>
	<inkscape:path-effect  effect="spiro" id="path-effect4140" is_visible="true"></inkscape:path-effect>
	<inkscape:path-effect  effect="spiro" id="path-effect3862" is_visible="true"></inkscape:path-effect>
</defs>
<sodipodi:namedview  bordercolor="#666666" borderopacity="1" gridtolerance="10" guidetolerance="10" id="namedview3041" inkscape:current-layer="svg3039" inkscape:cx="29.829282" inkscape:cy="68.111463" inkscape:pageopacity="0" inkscape:pageshadow="2" inkscape:window-height="856" inkscape:window-maximized="0" inkscape:window-width="1134" inkscape:window-x="263" inkscape:window-y="0" inkscape:zoom="9.4428777" objecttolerance="10" pagecolor="#ffffff" showgrid="false">
	</sodipodi:namedview>
<rect x="9" y="1" class="st0" width="88" height="105"/>
<path class="st1" d="M96,2v103H10V2H96 M98,0H8v107h90V0L98,0z"/>
<g>
	<g>
		<g>
			<g id="path3827_31_" inkscape:connector-curvature="0" sodipodi:nodetypes="ccccccccccccccccccccccccccccc">
				<path class="st2" d="M53,20H42c-0.5,0-1,0.5-1,1v9c0,0.5-0.5,1-1,1h-3c-0.5,0-1-0.5-1-1V15c0-0.6,0.5-1,1-1h16"/>
			</g>
			<g id="path3827_30_" inkscape:connector-curvature="0" sodipodi:nodetypes="ccccccccccccccccccccccccccccc">
				<path class="st2" d="M41,30v10c0,0.5-0.5,1-1,1H22c-0.5,0-1,0.5-1,1v18c0,0.5,0.5,1,1,1h8c0.5,0,1-0.5,1-1v-8c0-0.5,0-0.5,0,0
					v27c0,0.6-0.5,1-1,1h-9c-0.5,0-1,0.4-1,1v9c0,0.6,0.5,1,1,1h20c0.5,0,1-0.4,1-1v-8c0-0.6,0.5-1,1-1h10"/>
			</g>
		</g>
		<g>
			<g id="path3827_29_" inkscape:connector-curvature="0" sodipodi:nodetypes="ccccccccccccccccccccccccccccc">
				<path class="st2" d="M53,14h16c0.6,0,1,0.4,1,1v15c0,0.5-0.4,1-1,1h-3c-0.6,0-1-0.5-1-1v-9c0-0.5-0.4-1-1-1H53"/>
			</g>
			<g id="path3827_28_" inkscape:connector-curvature="0" sodipodi:nodetypes="ccccccccccccccccccccccccccccc">
				<path class="st2" d="M53,81h10c0.6,0,1,0.4,1,1v8c0,0.6,0.4,1,1,1h20c0.6,0,1-0.4,1-1v-9c0-0.6-0.4-1-1-1h-9c-0.6,0-1-0.4-1-1
					V52c0-0.5,0-0.5,0,0v8c0,0.5,0.4,1,1,1h8c0.6,0,1-0.5,1-1V42c0-0.5-0.4-1-1-1H66c-0.6,0-1-0.5-1-1V30"/>
			</g>
		</g>
	</g>
</g>
<g>
	<path id="path3082_1_" inkscape:connector-curvature="0" sodipodi:nodetypes="cc" class="st3" d="M46,25l4-1"/>
	<path id="path3084_1_" inkscape:connector-curvature="0" sodipodi:nodetypes="cc" class="st4" d="M56,24l4.1,1"/>
</g>
<path id="path4082_1_" inkscape:connector-curvature="0" sodipodi:nodetypes="cc" class="st4" d="M55.4,33.2c-1.4,1.9-3.1,2-4.8,0"
	/>
<path id="path3984" inkscape:connector-curvature="0" inkscape:original-d="m 43.766185,34.85 11.46763,0" inkscape:path-effect="#path-effect3986" class="st5" d="
	M58.8,39.8c0,0-2.1-2-5.8-2s-5.7,2-5.7,2"/>
<rect x="46" y="27" class="st5" width="4.2" height="3.8"/>
<rect x="55.9" y="27" class="st5" width="4.2" height="3.8"/>
<circle class="st6" cx="48.1" cy="28.9" r="0.4"/>
<circle class="st6" cx="58" cy="28.9" r="0.4"/>
</svg>
